<svg width="123" height="124" viewBox="0 0 123 124" fill="none" xmlns="http://www.w3.org/2000/svg">
<path d="M84.0027 23.6037L87.2899 25.9938C94.9917 31.6004 100.69 39.5667 103.533 48.7046C106.377 57.8424 106.215 67.6623 103.071 76.6996C99.9265 85.7369 93.9686 93.5074 86.0858 98.8522C78.203 104.197 68.8176 106.83 59.3292 106.358C49.8409 105.886 40.7581 102.335 33.4354 96.2336C26.1128 90.1325 20.9426 81.8085 18.6959 72.5031C16.4493 63.1976 17.2466 53.4094 20.9689 44.5981C24.6912 35.7868 31.1391 28.4246 39.3509 23.6095" stroke="#79FF5B" stroke-width="8" stroke-linecap="round" stroke-linejoin="round"/>
<path d="M78.9815 6.30884L58.5415 27.4574L52.4094 21.1192" stroke="#79FF5B" stroke-width="8" stroke-linecap="round" stroke-linejoin="round"/>
<path d="M39.8355 75C39.5355 75 39.3855 74.85 39.3855 74.55V55.704L36.9735 55.794C36.6735 55.794 36.5235 55.644 36.5235 55.344V51.456C36.5235 51.156 36.6735 51.006 36.9735 51.006H44.9295C45.2295 51.006 45.3795 51.156 45.3795 51.456V74.55C45.3795 74.85 45.2295 75 44.9295 75H39.8355ZM51.4748 75C50.7908 75 50.3228 74.862 50.0708 74.586C49.8308 74.298 49.7108 73.884 49.7108 73.344V52.68C49.7108 52.14 49.8308 51.732 50.0708 51.456C50.3228 51.168 50.7908 51.024 51.4748 51.024L63.8408 50.97C64.5368 50.97 65.0048 51.114 65.2448 51.402C65.4848 51.678 65.6048 52.086 65.6048 52.626V73.344C65.6048 73.884 65.4848 74.298 65.2448 74.586C65.0048 74.862 64.5368 75 63.8408 75H51.4748ZM55.7048 70.5H59.6108V55.47H55.7048V70.5ZM71.6896 75C71.0056 75 70.5376 74.862 70.2856 74.586C70.0456 74.298 69.9256 73.884 69.9256 73.344V52.68C69.9256 52.14 70.0456 51.732 70.2856 51.456C70.5376 51.168 71.0056 51.024 71.6896 51.024L84.0556 50.97C84.7516 50.97 85.2196 51.114 85.4596 51.402C85.6996 51.678 85.8196 52.086 85.8196 52.626V73.344C85.8196 73.884 85.6996 74.298 85.4596 74.586C85.2196 74.862 84.7516 75 84.0556 75H71.6896ZM75.9196 70.5H79.8256V55.47H75.9196V70.5Z" fill="#79FF5B"/>
</svg>
