<svg width="125" height="125" viewBox="0 0 125 125" fill="none" xmlns="http://www.w3.org/2000/svg">
<path d="M97.1279 25L67.7091 54.4189L52.2254 38.9353L29 62.1607" stroke="#17D1FF" stroke-width="8" stroke-linecap="round" stroke-linejoin="round"/>
<path d="M78.5469 25H97.1272V43.5803" stroke="#17D1FF" stroke-width="8" stroke-linecap="round" stroke-linejoin="round"/>
<path d="M34.3179 77.2598H39.6079C40.4363 77.2598 41.1079 77.9313 41.1079 78.7598V99.3125C41.1078 100.141 40.4363 100.812 39.6079 100.812H34.3179C33.4895 100.812 32.8179 100.141 32.8179 99.3125V78.7598C32.8179 77.9831 33.4081 77.3444 34.1646 77.2676L34.3179 77.2598Z" fill="#17D1FF" stroke="#17D1FF"/>
<path d="M52.2349 71.9509H57.5249C58.3533 71.9509 59.0249 72.6225 59.0249 73.4509V99.3123C59.0249 100.141 58.3533 100.812 57.5249 100.812H52.2349C51.4065 100.812 50.7349 100.141 50.7349 99.3123V73.4509C50.7349 72.6743 51.3251 72.0355 52.0815 71.9587L52.2349 71.9509Z" fill="#17D1FF" stroke="#17D1FF"/>
<path d="M70.1509 67.3057H75.4409C76.2693 67.3057 76.9409 67.9772 76.9409 68.8057V99.3125C76.9407 100.141 76.2692 100.812 75.4409 100.812H70.1509C69.3226 100.812 68.6511 100.141 68.6509 99.3125V68.8057C68.6509 68.029 69.2412 67.3903 69.9976 67.3135L70.1509 67.3057Z" fill="#17D1FF" stroke="#17D1FF"/>
<path d="M88.0684 58.679H93.3584C94.1868 58.679 94.8584 59.3505 94.8584 60.179V99.3118C94.8584 100.14 94.1868 100.812 93.3584 100.812H88.0684C87.2399 100.812 86.5684 100.14 86.5684 99.3118V60.179C86.5684 59.4023 87.1586 58.7636 87.915 58.6868L88.0684 58.679Z" fill="#17D1FF" stroke="#17D1FF"/>
</svg>
