<svg width="125" height="125" viewBox="0 0 125 125" fill="none" xmlns="http://www.w3.org/2000/svg">
<path d="M63.147 106C63.147 106 97.2941 88.7999 97.2941 63V32.9L63.147 20L29 32.9V63C29 88.7999 63.147 106 63.147 106Z" stroke="#FF6D6D" stroke-width="8" stroke-linecap="round" stroke-linejoin="round"/>
<mask id="path-2-outside-1_194_111" maskUnits="userSpaceOnUse" x="46.125" y="47.5515" width="34" height="29" fill="black">
<rect fill="white" x="46.125" y="47.5515" width="34" height="29"/>
<path d="M63.06 49.097H68.4418V65.6275C68.4418 67.4836 67.9985 69.1076 67.1119 70.4997C66.2335 71.8917 65.0031 72.9772 63.4205 73.7561C61.8378 74.5267 59.9942 74.912 57.8896 74.912C55.7766 74.912 53.9289 74.5267 52.3462 73.7561C50.7636 72.9772 49.5331 71.8917 48.6548 70.4997C47.7765 69.1076 47.3374 67.4836 47.3374 65.6275V49.097H52.7191V65.1676C52.7191 66.1371 52.9304 66.9988 53.353 67.7529C53.7839 68.5069 54.3887 69.0993 55.1676 69.5302C55.9465 69.9611 56.8538 70.1765 57.8896 70.1765C58.9336 70.1765 59.8409 69.9611 60.6115 69.5302C61.3904 69.0993 61.9911 68.5069 62.4137 67.7529C62.8446 66.9988 63.06 66.1371 63.06 65.1676V49.097ZM78.2513 49.097V74.5515H72.8696V49.097H78.2513Z"/>
</mask>
<path d="M63.06 49.097H68.4418V65.6275C68.4418 67.4836 67.9985 69.1076 67.1119 70.4997C66.2335 71.8917 65.0031 72.9772 63.4205 73.7561C61.8378 74.5267 59.9942 74.912 57.8896 74.912C55.7766 74.912 53.9289 74.5267 52.3462 73.7561C50.7636 72.9772 49.5331 71.8917 48.6548 70.4997C47.7765 69.1076 47.3374 67.4836 47.3374 65.6275V49.097H52.7191V65.1676C52.7191 66.1371 52.9304 66.9988 53.353 67.7529C53.7839 68.5069 54.3887 69.0993 55.1676 69.5302C55.9465 69.9611 56.8538 70.1765 57.8896 70.1765C58.9336 70.1765 59.8409 69.9611 60.6115 69.5302C61.3904 69.0993 61.9911 68.5069 62.4137 67.7529C62.8446 66.9988 63.06 66.1371 63.06 65.1676V49.097ZM78.2513 49.097V74.5515H72.8696V49.097H78.2513Z" fill="black"/>
<path d="M63.06 49.097V48.097H62.06V49.097H63.06ZM68.4418 49.097H69.4418V48.097H68.4418V49.097ZM67.1119 70.4997L66.2684 69.9625L66.2661 69.9661L67.1119 70.4997ZM63.4205 73.7561L63.8582 74.6552L63.862 74.6533L63.4205 73.7561ZM52.3462 73.7561L51.9047 74.6533L51.9085 74.6551L52.3462 73.7561ZM48.6548 70.4997L47.8091 71.0333L47.8091 71.0333L48.6548 70.4997ZM47.3374 49.097V48.097H46.3374V49.097H47.3374ZM52.7191 49.097H53.7191V48.097H52.7191V49.097ZM53.353 67.7529L52.4806 68.2418L52.4847 68.249L53.353 67.7529ZM55.1676 69.5302L54.6836 70.4052L54.6836 70.4052L55.1676 69.5302ZM60.6115 69.5302L60.1274 68.6552L60.1235 68.6574L60.6115 69.5302ZM62.4137 67.7529L61.5454 67.2567L61.5414 67.264L62.4137 67.7529ZM63.06 49.097V50.097H68.4418V49.097V48.097H63.06V49.097ZM68.4418 49.097H67.4418V65.6275H68.4418H69.4418V49.097H68.4418ZM68.4418 65.6275H67.4418C67.4418 67.3177 67.0404 68.7504 66.2684 69.9625L67.1119 70.4997L67.9553 71.0369C68.9565 69.4649 69.4418 67.6495 69.4418 65.6275H68.4418ZM67.1119 70.4997L66.2661 69.9661C65.4935 71.1906 64.4082 72.1554 62.9789 72.8588L63.4205 73.7561L63.862 74.6533C65.598 73.7989 66.9736 72.5928 67.9576 71.0333L67.1119 70.4997ZM63.4205 73.7561L62.9827 72.857C61.5606 73.5494 59.8719 73.912 57.8896 73.912V74.912V75.912C60.1165 75.912 62.1151 75.5039 63.8582 74.6551L63.4205 73.7561ZM57.8896 74.912V73.912C55.8983 73.912 54.2056 73.5492 52.784 72.857L52.3462 73.7561L51.9085 74.6551C53.6521 75.5041 55.655 75.912 57.8896 75.912V74.912ZM52.3462 73.7561L52.7878 72.8588C51.3585 72.1554 50.2732 71.1906 49.5006 69.9661L48.6548 70.4997L47.8091 71.0333C48.7931 72.5928 50.1687 73.7989 51.9047 74.6533L52.3462 73.7561ZM48.6548 70.4997L49.5006 69.9661C48.7355 68.7535 48.3374 67.3195 48.3374 65.6275H47.3374H46.3374C46.3374 67.6476 46.8175 69.4618 47.8091 71.0333L48.6548 70.4997ZM47.3374 65.6275H48.3374V49.097H47.3374H46.3374V65.6275H47.3374ZM47.3374 49.097V50.097H52.7191V49.097V48.097H47.3374V49.097ZM52.7191 49.097H51.7191V65.1676H52.7191H53.7191V49.097H52.7191ZM52.7191 65.1676H51.7191C51.7191 66.2871 51.9646 67.3209 52.4806 68.2418L53.353 67.7529L54.2253 67.264C53.8962 66.6768 53.7191 65.9871 53.7191 65.1676H52.7191ZM53.353 67.7529L52.4847 68.249C53.0089 69.1663 53.7485 69.888 54.6836 70.4052L55.1676 69.5302L55.6517 68.6552C55.0289 68.3107 54.5588 67.8475 54.2212 67.2567L53.353 67.7529ZM55.1676 69.5302L54.6836 70.4052C55.6332 70.9306 56.7124 71.1765 57.8896 71.1765V70.1765V69.1765C56.9952 69.1765 56.2598 68.9916 55.6517 68.6552L55.1676 69.5302ZM57.8896 70.1765V71.1765C59.0732 71.1765 60.1547 70.9313 61.0995 70.403L60.6115 69.5302L60.1235 68.6574C59.5271 68.9908 58.794 69.1765 57.8896 69.1765V70.1765ZM60.6115 69.5302L61.0956 70.4052C62.0322 69.8871 62.7697 69.1631 63.2861 68.2418L62.4137 67.7529L61.5414 67.264C61.2126 67.8506 60.7486 68.3116 60.1274 68.6552L60.6115 69.5302ZM62.4137 67.7529L63.282 68.249C63.8089 67.3269 64.06 66.2904 64.06 65.1676H63.06H62.06C62.06 65.9838 61.8803 66.6708 61.5455 67.2567L62.4137 67.7529ZM63.06 65.1676H64.06V49.097H63.06H62.06V65.1676H63.06ZM78.2513 49.097H79.2513V48.097H78.2513V49.097ZM78.2513 74.5515V75.5515H79.2513V74.5515H78.2513ZM72.8696 74.5515H71.8696V75.5515H72.8696V74.5515ZM72.8696 49.097V48.097H71.8696V49.097H72.8696ZM78.2513 49.097H77.2513V74.5515H78.2513H79.2513V49.097H78.2513ZM78.2513 74.5515V73.5515H72.8696V74.5515V75.5515H78.2513V74.5515ZM72.8696 74.5515H73.8696V49.097H72.8696H71.8696V74.5515H72.8696ZM72.8696 49.097V50.097H78.2513V49.097V48.097H72.8696V49.097Z" fill="#FF7575" mask="url(#path-2-outside-1_194_111)"/>
</svg>
