<svg width="115" height="112" viewBox="0 0 115 112" fill="none" xmlns="http://www.w3.org/2000/svg">
<path d="M12 5.5H48.7764V40.583C48.7763 44.1728 45.8661 47.0829 42.2764 47.083H5.5V12C5.5 8.41015 8.41015 5.5 12 5.5Z" stroke="white" stroke-width="11"/>
<path d="M72.0925 64.5H109.5V99.583C109.5 103.173 106.59 106.083 103 106.083H65.5925V71C65.5925 67.4101 68.5027 64.5 72.0925 64.5Z" stroke="white" stroke-width="11"/>
<path d="M103 5.5C106.59 5.5 109.5 8.41015 109.5 12V47.083H72.0925C68.5027 47.083 65.5926 44.1728 65.5925 40.583V5.5H103Z" stroke="white" stroke-width="11"/>
<path d="M7 64C7 62.8954 7.89543 62 9 62H49C50.1046 62 51 62.8954 51 64V72C51 73.1046 50.1046 74 49 74H9C7.89543 74 7 73.1046 7 72V64Z" fill="white"/>
<path d="M22.5 71C22.5 69.8954 23.3954 69 24.5 69H32.5C33.6046 69 34.5 69.8954 34.5 71V108C34.5 109.105 33.6046 110 32.5 110H24.5C23.3954 110 22.5 109.105 22.5 108V71Z" fill="white"/>
</svg>
